<svg width="30" height="11" viewBox="0 0 30 11" fill="none" xmlns="http://www.w3.org/2000/svg">
<path d="M0.13068 0.834999H5.92868V1.719H1.18368V4.904H5.66868V5.788H1.18368V9.116H5.92868V10H0.13068V0.834999ZM14.5871 3.513C15.9911 3.513 16.6931 4.34933 16.6931 6.022V10H15.6401V6.074C15.6401 5.49333 15.5361 5.06867 15.3281 4.8C15.1288 4.53133 14.8038 4.397 14.3531 4.397C13.8244 4.397 13.4084 4.57467 13.1051 4.93C12.8018 5.28533 12.6501 5.77067 12.6501 6.386V10H11.5971V6.074C11.5971 5.48467 11.4931 5.06 11.2851 4.8C11.0771 4.53133 10.7478 4.397 10.2971 4.397C9.76842 4.397 9.35242 4.57467 9.04909 4.93C8.74575 5.28533 8.59409 5.77067 8.59409 6.386V10H7.54109V3.669H8.58109V4.67C8.77175 4.29733 9.03609 4.01133 9.37409 3.812C9.71209 3.61267 10.1021 3.513 10.5441 3.513C11.5234 3.513 12.1691 3.929 12.4811 4.761C12.6631 4.371 12.9404 4.06767 13.3131 3.851C13.6858 3.62567 14.1104 3.513 14.5871 3.513ZM21.1854 3.513C21.9914 3.513 22.5894 3.721 22.9794 4.137C23.3781 4.54433 23.5774 5.16833 23.5774 6.009V10H22.5504V8.921C22.3857 9.29367 22.1344 9.584 21.7964 9.792C21.4584 9.99133 21.0684 10.091 20.6264 10.091C20.2191 10.091 19.8421 10.0087 19.4954 9.844C19.1574 9.67933 18.8887 9.44967 18.6894 9.155C18.4901 8.86033 18.3904 8.53533 18.3904 8.18C18.3904 7.70333 18.5117 7.335 18.7544 7.075C18.9971 6.80633 19.3957 6.61567 19.9504 6.503C20.5051 6.38167 21.2764 6.321 22.2644 6.321H22.5504V5.892C22.5504 5.36333 22.4421 4.982 22.2254 4.748C22.0087 4.50533 21.6577 4.384 21.1724 4.384C20.4444 4.384 19.7207 4.60933 19.0014 5.06L18.6504 4.293C18.9797 4.059 19.3741 3.87267 19.8334 3.734C20.3014 3.58667 20.7521 3.513 21.1854 3.513ZM20.7694 9.259C21.2894 9.259 21.7141 9.08567 22.0434 8.739C22.3814 8.38367 22.5504 7.92867 22.5504 7.374V6.997H22.3164C21.5537 6.997 20.9731 7.03167 20.5744 7.101C20.1757 7.16167 19.8897 7.27 19.7164 7.426C19.5517 7.57333 19.4694 7.79433 19.4694 8.089C19.4694 8.427 19.5907 8.70867 19.8334 8.934C20.0847 9.15067 20.3967 9.259 20.7694 9.259ZM25.505 3.669H26.558V10H25.505V3.669ZM26.675 0.926V2.109H25.401V0.926H26.675ZM28.5264 0.834999H29.5794V10H28.5264V0.834999Z" fill="white" fill-opacity="0.5"/>
</svg>
