<svg width="33" height="10" viewBox="0 0 33 10" fill="none" xmlns="http://www.w3.org/2000/svg">
<path d="M7.476 0.745644V9.91064H6.657L1.132 2.53964V9.91064H0.131V0.745644H0.95L6.475 8.11664V0.745644H7.476ZM12.1594 3.42364C12.9654 3.42364 13.5634 3.63164 13.9534 4.04764C14.352 4.45498 14.5514 5.07898 14.5514 5.91964V9.91064H13.5244V8.83164C13.3597 9.20431 13.1084 9.49464 12.7704 9.70264C12.4324 9.90198 12.0424 10.0016 11.6004 10.0016C11.193 10.0016 10.816 9.91931 10.4694 9.75464C10.1314 9.58998 9.86268 9.36031 9.66335 9.06564C9.46402 8.77098 9.36435 8.44598 9.36435 8.09064C9.36435 7.61398 9.48568 7.24564 9.72835 6.98564C9.97102 6.71698 10.3697 6.52631 10.9244 6.41364C11.479 6.29231 12.2504 6.23164 13.2384 6.23164H13.5244V5.80264C13.5244 5.27398 13.416 4.89264 13.1994 4.65864C12.9827 4.41598 12.6317 4.29464 12.1464 4.29464C11.4184 4.29464 10.6947 4.51998 9.97535 4.97064L9.62435 4.20364C9.95368 3.96964 10.348 3.78331 10.8074 3.64464C11.2754 3.49731 11.726 3.42364 12.1594 3.42364ZM11.7434 9.16964C12.2634 9.16964 12.688 8.99631 13.0174 8.64964C13.3554 8.29431 13.5244 7.83931 13.5244 7.28464V6.90764H13.2904C12.5277 6.90764 11.947 6.94231 11.5484 7.01164C11.1497 7.07231 10.8637 7.18064 10.6904 7.33664C10.5257 7.48398 10.4434 7.70498 10.4434 7.99964C10.4434 8.33764 10.5647 8.61931 10.8074 8.84464C11.0587 9.06131 11.3707 9.16964 11.7434 9.16964ZM23.5249 3.42364C24.9289 3.42364 25.6309 4.25998 25.6309 5.93264V9.91064H24.5779V5.98464C24.5779 5.40398 24.4739 4.97931 24.2659 4.71064C24.0666 4.44198 23.7416 4.30764 23.2909 4.30764C22.7622 4.30764 22.3462 4.48531 22.0429 4.84064C21.7396 5.19598 21.5879 5.68131 21.5879 6.29664V9.91064H20.5349V5.98464C20.5349 5.39531 20.4309 4.97064 20.2229 4.71064C20.0149 4.44198 19.6856 4.30764 19.2349 4.30764C18.7062 4.30764 18.2902 4.48531 17.9869 4.84064C17.6836 5.19598 17.5319 5.68131 17.5319 6.29664V9.91064H16.4789V3.57964H17.5189V4.58064C17.7096 4.20798 17.9739 3.92198 18.3119 3.72264C18.6499 3.52331 19.0399 3.42364 19.4819 3.42364C20.4612 3.42364 21.1069 3.83964 21.4189 4.67164C21.6009 4.28164 21.8782 3.97831 22.2509 3.76164C22.6236 3.53631 23.0482 3.42364 23.5249 3.42364ZM32.8532 6.90764H28.2252C28.2599 7.64431 28.4592 8.20331 28.8232 8.58464C29.1872 8.95731 29.7029 9.14364 30.3702 9.14364C31.1069 9.14364 31.7829 8.89231 32.3982 8.38964L32.7492 9.15664C32.4719 9.41664 32.1166 9.62464 31.6832 9.78064C31.2499 9.92798 30.8079 10.0016 30.3572 10.0016C29.3692 10.0016 28.5892 9.71131 28.0172 9.13064C27.4539 8.54998 27.1722 7.74831 27.1722 6.72564C27.1722 6.07564 27.2979 5.50364 27.5492 5.00964C27.8006 4.50698 28.1516 4.11698 28.6022 3.83964C29.0616 3.56231 29.5816 3.42364 30.1622 3.42364C31.0029 3.42364 31.6616 3.70098 32.1382 4.25564C32.6149 4.80164 32.8532 5.55564 32.8532 6.51764V6.90764ZM30.1752 4.24264C29.6206 4.24264 29.1742 4.41598 28.8362 4.76264C28.5069 5.10931 28.3119 5.59898 28.2512 6.23164H31.9302C31.9129 5.59031 31.7526 5.10064 31.4492 4.76264C31.1459 4.41598 30.7212 4.24264 30.1752 4.24264Z" fill="#363636" fill-opacity="0.5"/>
</svg>
