<svg width="33" height="11" viewBox="0 0 33 11" fill="none" xmlns="http://www.w3.org/2000/svg">
<path d="M7.47568 0.834999V10H6.65668L1.13168 2.629V10H0.13068V0.834999H0.94968L6.47468 8.206V0.834999H7.47568ZM12.159 3.513C12.965 3.513 13.563 3.721 13.953 4.137C14.3517 4.54433 14.551 5.16833 14.551 6.009V10H13.524V8.921C13.3594 9.29367 13.108 9.584 12.77 9.792C12.432 9.99133 12.042 10.091 11.6 10.091C11.1927 10.091 10.8157 10.0087 10.469 9.844C10.131 9.67933 9.86236 9.44967 9.66303 9.155C9.4637 8.86033 9.36403 8.53533 9.36403 8.18C9.36403 7.70333 9.48536 7.335 9.72803 7.075C9.9707 6.80633 10.3694 6.61567 10.924 6.503C11.4787 6.38167 12.25 6.321 13.238 6.321H13.524V5.892C13.524 5.36333 13.4157 4.982 13.199 4.748C12.9824 4.50533 12.6314 4.384 12.146 4.384C11.418 4.384 10.6944 4.60933 9.97503 5.06L9.62403 4.293C9.95336 4.059 10.3477 3.87267 10.807 3.734C11.275 3.58667 11.7257 3.513 12.159 3.513ZM11.743 9.259C12.263 9.259 12.6877 9.08567 13.017 8.739C13.355 8.38367 13.524 7.92867 13.524 7.374V6.997H13.29C12.5274 6.997 11.9467 7.03167 11.548 7.101C11.1494 7.16167 10.8634 7.27 10.69 7.426C10.5254 7.57333 10.443 7.79433 10.443 8.089C10.443 8.427 10.5644 8.70867 10.807 8.934C11.0584 9.15067 11.3704 9.259 11.743 9.259ZM23.5246 3.513C24.9286 3.513 25.6306 4.34933 25.6306 6.022V10H24.5776V6.074C24.5776 5.49333 24.4736 5.06867 24.2656 4.8C24.0663 4.53133 23.7413 4.397 23.2906 4.397C22.7619 4.397 22.3459 4.57467 22.0426 4.93C21.7393 5.28533 21.5876 5.77067 21.5876 6.386V10H20.5346V6.074C20.5346 5.48467 20.4306 5.06 20.2226 4.8C20.0146 4.53133 19.6853 4.397 19.2346 4.397C18.7059 4.397 18.2899 4.57467 17.9866 4.93C17.6833 5.28533 17.5316 5.77067 17.5316 6.386V10H16.4786V3.669H17.5186V4.67C17.7093 4.29733 17.9736 4.01133 18.3116 3.812C18.6496 3.61267 19.0396 3.513 19.4816 3.513C20.4609 3.513 21.1066 3.929 21.4186 4.761C21.6006 4.371 21.8779 4.06767 22.2506 3.851C22.6233 3.62567 23.0479 3.513 23.5246 3.513ZM32.8529 6.997H28.2249C28.2596 7.73367 28.4589 8.29267 28.8229 8.674C29.1869 9.04667 29.7026 9.233 30.3699 9.233C31.1066 9.233 31.7826 8.98167 32.3979 8.479L32.7489 9.246C32.4716 9.506 32.1162 9.714 31.6829 9.87C31.2496 10.0173 30.8076 10.091 30.3569 10.091C29.3689 10.091 28.5889 9.80067 28.0169 9.22C27.4536 8.63933 27.1719 7.83767 27.1719 6.815C27.1719 6.165 27.2976 5.593 27.5489 5.099C27.8002 4.59633 28.1512 4.20633 28.6019 3.929C29.0612 3.65167 29.5812 3.513 30.1619 3.513C31.0026 3.513 31.6612 3.79033 32.1379 4.345C32.6146 4.891 32.8529 5.645 32.8529 6.607V6.997ZM30.1749 4.332C29.6202 4.332 29.1739 4.50533 28.8359 4.852C28.5066 5.19867 28.3116 5.68833 28.2509 6.321H31.9299C31.9126 5.67967 31.7522 5.19 31.4489 4.852C31.1456 4.50533 30.7209 4.332 30.1749 4.332Z" fill="white" fill-opacity="0.5"/>
</svg>
