<svg width="133" height="16" viewBox="0 0 133 16" fill="none" xmlns="http://www.w3.org/2000/svg">
<path d="M7.09336 15.3C5.78669 15.3 4.64003 15.02 3.65336 14.46C2.68003 13.8867 1.92669 13.0533 1.39336 11.96C0.860026 10.8667 0.593359 9.54667 0.593359 8C0.593359 6.45333 0.860026 5.13333 1.39336 4.04C1.92669 2.94667 2.68003 2.12 3.65336 1.56C4.64003 0.986666 5.78669 0.699999 7.09336 0.699999C8.40003 0.699999 9.54003 0.986666 10.5134 1.56C11.5 2.12 12.26 2.94667 12.7934 4.04C13.3267 5.13333 13.5934 6.45333 13.5934 8C13.5934 9.54667 13.3267 10.8667 12.7934 11.96C12.26 13.0533 11.5 13.8867 10.5134 14.46C9.54003 15.02 8.40003 15.3 7.09336 15.3ZM7.09336 14.9C7.61336 14.9 8.09336 14.68 8.53336 14.24C8.98669 13.8 9.36003 13.0667 9.65336 12.04C9.94669 11.0133 10.0934 9.66667 10.0934 8C10.0934 6.33333 9.94669 4.98667 9.65336 3.96C9.36003 2.93333 8.98669 2.2 8.53336 1.76C8.09336 1.32 7.61336 1.1 7.09336 1.1C6.57336 1.1 6.08669 1.32 5.63336 1.76C5.19336 2.2 4.82669 2.93333 4.53336 3.96C4.24003 4.98667 4.09336 6.33333 4.09336 8C4.09336 9.66667 4.24003 11.0133 4.53336 12.04C4.82669 13.0667 5.19336 13.8 5.63336 14.24C6.08669 14.68 6.57336 14.9 7.09336 14.9ZM22.398 15.3C20.4247 15.3 18.9314 14.84 17.918 13.92C16.9047 12.9867 16.398 11.68 16.398 10V1.6L15.198 1.3V0.999999H20.898V1.3L19.698 1.6V10C19.698 11.72 19.9647 12.9533 20.498 13.7C21.0314 14.4333 21.798 14.8 22.798 14.8C23.4114 14.8 23.9914 14.6067 24.538 14.22C25.098 13.82 25.5447 13.26 25.878 12.54C26.2247 11.8067 26.398 10.96 26.398 10V1.9L24.798 1.3V0.999999H28.598V1.3L26.998 1.9V10C26.998 11.08 26.798 12.02 26.398 12.82C25.998 13.62 25.4514 14.2333 24.758 14.66C24.0647 15.0867 23.278 15.3 22.398 15.3ZM29.6973 14.7L30.8973 14.4V1.6L29.6973 1.3V0.999999H34.9973C37.2639 0.999999 38.8973 1.34667 39.8973 2.04C40.8973 2.72 41.3973 3.67333 41.3973 4.9C41.3973 5.72667 41.1773 6.4 40.7373 6.92C40.2973 7.42667 39.7306 7.80667 39.0373 8.06C38.3039 8.34 37.5239 8.48667 36.6973 8.5V8.6C37.1906 8.62667 37.6239 8.7 37.9973 8.82C38.9306 9.11333 39.5639 9.64 39.8973 10.4L41.6973 14.4L42.6973 14.7V15H39.8973C38.8039 15 38.0039 14.4333 37.4973 13.3L35.4973 8.8H34.1973V14.4L35.5973 14.7V15H29.6973V14.7ZM34.9973 8.3C35.9306 8.3 36.6639 8.00667 37.1973 7.42C37.7306 6.83333 37.9973 5.99333 37.9973 4.9C37.9973 3.80667 37.7306 2.96667 37.1973 2.38C36.6639 1.79333 35.9306 1.5 34.9973 1.5H34.1973V8.3H34.9973ZM56.0066 15.3C53.8733 15.3 52.2066 14.6667 51.0066 13.4C49.8066 12.1333 49.2066 10.3333 49.2066 8C49.2066 6.46667 49.4666 5.15333 49.9866 4.06C50.52 2.95333 51.26 2.12 52.2066 1.56C53.1666 0.986666 54.2733 0.699999 55.5266 0.699999C56.2866 0.699999 57.0533 0.919999 57.8266 1.36C58.12 1.52 58.4133 1.73333 58.7066 2C58.9333 1.65333 59.1666 1.38 59.4066 1.18C59.6466 1.00667 59.78 0.913332 59.8066 0.899999H60.3066V4.7H59.5066C59.3333 4.06 59.0733 3.48 58.7266 2.96C58.4066 2.45333 58.0066 2.03333 57.5266 1.7C57.06 1.36667 56.52 1.2 55.9066 1.2C54.9866 1.2 54.22 1.73333 53.6066 2.8C53.0066 3.86667 52.7066 5.6 52.7066 8C52.7066 10.44 53.0333 12.1867 53.6866 13.24C54.3533 14.28 55.26 14.8 56.4066 14.8C57.0333 14.8 57.6266 14.6267 58.1866 14.28C58.76 13.92 59.22 13.4467 59.5666 12.86C59.9266 12.2733 60.1066 11.6533 60.1066 11H60.6066C60.6066 11.76 60.4 12.4733 59.9866 13.14C59.5866 13.7933 59.0333 14.32 58.3266 14.72C57.6333 15.1067 56.86 15.3 56.0066 15.3ZM62.3145 14.7L63.5145 14.4V1.6L62.3145 1.3V0.999999H68.0145V1.3L66.8145 1.6V14.5H71.1145C71.1145 13.66 71.3278 12.88 71.7545 12.16C71.9411 11.8533 72.1611 11.6 72.4145 11.4H73.0145V15H62.3145V14.7ZM74.5215 15V14.7L75.7215 14.4V1.6L74.5215 1.3V0.999999H80.2215V1.3L79.0215 1.6V14.4L80.2215 14.7V15H74.5215ZM82.0215 14.7L83.2215 14.4V1.6L82.0215 1.3V0.999999H92.7215V4.6H92.1215C91.8682 4.4 91.6482 4.14667 91.4615 3.84C91.0348 3.12 90.8215 2.34 90.8215 1.5H86.5215V7.8H88.8215C88.9148 7.29333 89.0882 6.82 89.3415 6.38C89.4482 6.18 89.5748 5.98667 89.7215 5.8H90.3215V10.3H89.7215C89.5748 10.1133 89.4482 9.92 89.3415 9.72C89.0882 9.28 88.9148 8.80667 88.8215 8.3H86.5215V14.5H91.2215C91.2215 13.66 91.4348 12.88 91.8615 12.16C92.0482 11.8533 92.2682 11.6 92.5215 11.4H93.1215V15H82.0215V14.7ZM96.7121 4.4V14.1L98.3121 14.7V15H94.5121V14.7L96.1121 14.1V1.7L94.7121 1.3V0.999999H96.8121C97.5188 0.999999 98.0721 1.12667 98.4721 1.38C98.8721 1.63333 99.2521 1.97333 99.6121 2.4L106.012 9.9V1.9L104.412 1.3V0.999999H108.212V1.3L106.612 1.9V15.3H106.012L96.7121 4.4ZM112.217 14.7L113.417 14.4V1.5H111.117C111.117 2.31333 110.897 3.09333 110.457 3.84C110.27 4.14667 110.057 4.4 109.817 4.6H109.217V0.999999H120.917V4.6H120.317C120.063 4.4 119.843 4.14667 119.657 3.84C119.23 3.12 119.017 2.34 119.017 1.5H116.717V14.4L117.917 14.7V15H112.217V14.7ZM127.312 15.3C126.365 15.3 125.479 15.0867 124.652 14.66C124.279 14.4733 123.965 14.2533 123.712 14C123.525 14.3067 123.292 14.58 123.012 14.82C122.772 14.9933 122.639 15.0867 122.612 15.1H122.112V11.3H122.912C123.112 11.9533 123.392 12.54 123.752 13.06C124.565 14.22 125.619 14.8 126.912 14.8C127.672 14.8 128.279 14.5733 128.732 14.12C129.185 13.6667 129.412 13.06 129.412 12.3C129.412 11.86 129.279 11.4667 129.012 11.12C128.759 10.7733 128.439 10.4667 128.052 10.2C127.665 9.93333 127.125 9.6 126.432 9.2C125.552 8.70667 124.839 8.26 124.292 7.86C123.745 7.46 123.279 6.96 122.892 6.36C122.505 5.74667 122.312 5.02667 122.312 4.2C122.312 3.54667 122.492 2.96 122.852 2.44C123.225 1.90667 123.779 1.48667 124.512 1.18C125.245 0.859999 126.145 0.699999 127.212 0.699999C127.985 0.699999 128.759 0.919999 129.532 1.36C129.825 1.52 130.119 1.73333 130.412 2C130.639 1.65333 130.872 1.38 131.112 1.18C131.352 1.00667 131.485 0.913332 131.512 0.899999H132.012V4.7H131.212C131.039 4.06 130.779 3.48 130.432 2.96C130.112 2.45333 129.712 2.03333 129.232 1.7C128.765 1.36667 128.225 1.2 127.612 1.2C127.092 1.2 126.645 1.40667 126.272 1.82C125.899 2.23333 125.712 2.76 125.712 3.4C125.712 3.89333 125.852 4.34 126.132 4.74C126.425 5.12667 126.779 5.46667 127.192 5.76C127.619 6.05333 128.192 6.40667 128.912 6.82C129.752 7.3 130.432 7.72667 130.952 8.1C131.472 8.47333 131.912 8.94 132.272 9.5C132.632 10.0467 132.812 10.68 132.812 11.4C132.812 12.12 132.605 12.78 132.192 13.38C131.779 13.9667 131.159 14.4333 130.332 14.78C129.505 15.1267 128.499 15.3 127.312 15.3Z" fill="#181818"/>
</svg>
