<svg width="36" height="11" viewBox="0 0 36 11" fill="none" xmlns="http://www.w3.org/2000/svg">
<path d="M0.13068 0.834999H3.75768C4.71968 0.834999 5.46501 1.069 5.99368 1.537C6.53101 2.005 6.79968 2.668 6.79968 3.526C6.79968 4.384 6.53101 5.05133 5.99368 5.528C5.45635 6.00467 4.71101 6.243 3.75768 6.243H1.19668V10H0.13068V0.834999ZM3.65368 5.359C5.04901 5.359 5.74668 4.748 5.74668 3.526C5.74668 2.32133 5.04901 1.719 3.65368 1.719H1.19668V5.359H3.65368ZM11.5386 3.513C13.0553 3.513 13.8136 4.34933 13.8136 6.022V10H12.7606V6.087C12.7606 5.49767 12.6436 5.06867 12.4096 4.8C12.1843 4.53133 11.8203 4.397 11.3176 4.397C10.7369 4.397 10.2733 4.57467 9.92659 4.93C9.57992 5.28533 9.40659 5.76633 9.40659 6.373V10H8.35359V0.834999H9.40659V4.683C9.61459 4.30167 9.90059 4.01133 10.2646 3.812C10.6373 3.61267 11.0619 3.513 11.5386 3.513ZM18.3683 10.091C17.7703 10.091 17.2416 9.95667 16.7823 9.688C16.3316 9.41933 15.9806 9.038 15.7293 8.544C15.4866 8.04133 15.3653 7.46067 15.3653 6.802C15.3653 6.14333 15.4866 5.567 15.7293 5.073C15.9806 4.57033 16.3316 4.18467 16.7823 3.916C17.2416 3.64733 17.7703 3.513 18.3683 3.513C18.9663 3.513 19.4949 3.64733 19.9543 3.916C20.4136 4.18467 20.7646 4.57033 21.0073 5.073C21.2586 5.567 21.3843 6.14333 21.3843 6.802C21.3843 7.46067 21.2586 8.04133 21.0073 8.544C20.7646 9.038 20.4136 9.41933 19.9543 9.688C19.4949 9.95667 18.9663 10.091 18.3683 10.091ZM18.3683 9.22C18.9923 9.22 19.4689 9.01633 19.7983 8.609C20.1363 8.193 20.3053 7.59067 20.3053 6.802C20.3053 6.03067 20.1363 5.437 19.7983 5.021C19.4603 4.59633 18.9836 4.384 18.3683 4.384C17.7529 4.384 17.2763 4.59633 16.9383 5.021C16.6003 5.437 16.4313 6.03067 16.4313 6.802C16.4313 7.582 16.5959 8.18 16.9253 8.596C17.2633 9.012 17.7443 9.22 18.3683 9.22ZM26.1382 3.513C27.6549 3.513 28.4132 4.34933 28.4132 6.022V10H27.3602V6.087C27.3602 5.49767 27.2432 5.06867 27.0092 4.8C26.7839 4.53133 26.4199 4.397 25.9172 4.397C25.3365 4.397 24.8729 4.57467 24.5262 4.93C24.1795 5.28533 24.0062 5.76633 24.0062 6.373V10H22.9532V3.669H23.9932V4.709C24.2012 4.319 24.4915 4.02433 24.8642 3.825C25.2369 3.617 25.6615 3.513 26.1382 3.513ZM35.6459 6.997H31.0179C31.0525 7.73367 31.2519 8.29267 31.6159 8.674C31.9799 9.04667 32.4955 9.233 33.1629 9.233C33.8995 9.233 34.5755 8.98167 35.1909 8.479L35.5419 9.246C35.2645 9.506 34.9092 9.714 34.4759 9.87C34.0425 10.0173 33.6005 10.091 33.1499 10.091C32.1619 10.091 31.3819 9.80067 30.8099 9.22C30.2465 8.63933 29.9649 7.83767 29.9649 6.815C29.9649 6.165 30.0905 5.593 30.3419 5.099C30.5932 4.59633 30.9442 4.20633 31.3949 3.929C31.8542 3.65167 32.3742 3.513 32.9549 3.513C33.7955 3.513 34.4542 3.79033 34.9309 4.345C35.4075 4.891 35.6459 5.645 35.6459 6.607V6.997ZM32.9679 4.332C32.4132 4.332 31.9669 4.50533 31.6289 4.852C31.2995 5.19867 31.1045 5.68833 31.0439 6.321H34.7229C34.7055 5.67967 34.5452 5.19 34.2419 4.852C33.9385 4.50533 33.5139 4.332 32.9679 4.332Z" fill="white" fill-opacity="0.5"/>
</svg>
