<svg width="36" height="11" viewBox="0 0 36 11" fill="none" xmlns="http://www.w3.org/2000/svg">
<path d="M0.128454 0.772859L3.75545 0.768542C4.71745 0.767396 5.46306 1.00051 5.99229 1.46788C6.53018 1.93524 6.79963 2.59792 6.80065 3.45592C6.80167 4.31392 6.5338 4.98157 5.99704 5.45888C5.46027 5.93618 4.71522 6.1754 3.76189 6.17654L1.20089 6.17959L1.20536 9.93658L0.139364 9.93785L0.128454 0.772859ZM3.65684 5.29266C5.05217 5.291 5.74911 4.67917 5.74765 3.45717C5.74622 2.25251 5.04784 1.651 3.6525 1.65266L1.19551 1.65559L1.19984 5.29559L3.65684 5.29266ZM11.5395 3.43728C13.0562 3.43547 13.8155 4.2709 13.8175 5.94357L13.8223 9.92156L12.7693 9.92282L12.7646 6.00982C12.7639 5.42049 12.6464 4.99163 12.4121 4.72324C12.1864 4.45484 11.8223 4.32094 11.3196 4.32154C10.7389 4.32223 10.2755 4.50045 9.92923 4.8562C9.58298 5.21194 9.41022 5.69315 9.41095 6.29981L9.41526 9.92681L8.36226 9.92806L8.35135 0.76307L9.40435 0.761817L9.40893 4.60981C9.61648 4.22823 9.90213 3.93756 10.2659 3.73779C10.6383 3.53802 11.0629 3.43784 11.5395 3.43728ZM18.377 10.0071C17.779 10.0079 17.2502 9.87415 16.7906 9.60603C16.3396 9.3379 15.9881 8.95699 15.7362 8.46329C15.4929 7.96091 15.3709 7.38039 15.3701 6.72172C15.3693 6.06305 15.49 5.48658 15.7321 4.99229C15.9828 4.48932 16.3333 4.10324 16.7837 3.83403C17.2427 3.56482 17.7712 3.42986 18.3692 3.42915C18.9672 3.42844 19.496 3.56214 19.9557 3.83026C20.4153 4.09838 20.7668 4.48363 21.0101 4.986C21.262 5.4797 21.3883 6.05589 21.3891 6.71455C21.3899 7.37322 21.2649 7.95404 21.0142 8.457C20.7721 8.95129 20.4216 9.33304 19.9626 9.60225C19.5035 9.87147 18.975 10.0064 18.377 10.0071ZM18.376 9.13614C19 9.1354 19.4764 8.93117 19.8053 8.52344C20.1428 8.10704 20.3111 7.50451 20.3101 6.71584C20.3092 5.94451 20.1395 5.35104 19.801 4.93544C19.4625 4.51118 18.9856 4.29941 18.3702 4.30015C17.7549 4.30088 17.2785 4.51378 16.941 4.93885C16.6035 5.35525 16.4352 5.94912 16.4361 6.72045C16.4371 7.50045 16.6024 8.09825 16.9323 8.51386C17.2708 8.92946 17.752 9.13689 18.376 9.13614ZM26.1391 3.4199C27.6558 3.41809 28.4151 4.25352 28.4171 5.92619L28.4219 9.90418L27.3689 9.90544L27.3642 5.99244C27.3635 5.40311 27.246 4.97425 27.0117 4.70586C26.786 4.43746 26.4219 4.30356 25.9192 4.30416C25.3385 4.30485 24.8751 4.48307 24.5288 4.83882C24.1826 5.19456 24.0098 5.67577 24.0105 6.28243L24.0149 9.90943L22.9619 9.91068L22.9543 3.57969L23.9943 3.57845L23.9956 4.61845C24.2031 4.2282 24.4931 3.93319 24.8655 3.73341C25.2379 3.52497 25.6625 3.42046 26.1391 3.4199ZM35.651 6.89258L31.023 6.89809C31.0585 7.63471 31.2585 8.19347 31.623 8.57437C31.9874 8.94661 32.5033 9.13233 33.1706 9.13153C33.9073 9.13065 34.583 8.87852 35.1977 8.37512L35.5496 9.1417C35.2726 9.40203 34.9175 9.61045 34.4844 9.76697C34.0512 9.91482 33.6093 9.98901 33.1586 9.98955C32.1706 9.99072 31.3903 9.70132 30.8176 9.12133C30.2536 8.54134 29.971 7.74001 29.9697 6.71734C29.969 6.06734 30.094 5.49519 30.3447 5.00089C30.5954 4.49793 30.946 4.10751 31.3963 3.82964C31.8553 3.55176 32.3751 3.41247 32.9558 3.41178C33.7965 3.41078 34.4555 3.68733 34.9328 4.24143C35.4101 4.78686 35.6493 5.54058 35.6505 6.50258L35.651 6.89258ZM32.9698 4.23077C32.4151 4.23143 31.969 4.40529 31.6314 4.75236C31.3025 5.09942 31.1081 5.58932 31.0482 6.22206L34.7271 6.21768C34.7091 5.57636 34.5481 5.08689 34.2444 4.74925C33.9407 4.40294 33.5158 4.23012 32.9698 4.23077Z" fill="#363636" fill-opacity="0.5"/>
</svg>
