<svg width="51" height="13" viewBox="0 0 51 13" fill="none" xmlns="http://www.w3.org/2000/svg">
<path d="M5.76417 9.81977C5.95484 9.88044 6.12384 9.9801 6.27117 10.1188C6.41851 10.2661 6.57017 10.4654 6.72617 10.7168L7.59717 12.1208L6.70017 12.5888L5.62117 10.8338C5.31784 10.3398 4.83251 10.0928 4.16517 10.0928C3.31584 10.0928 2.57484 9.9021 1.94217 9.52077C1.31817 9.13944 0.837173 8.59777 0.499173 7.89577C0.161173 7.19377 -0.00782697 6.3661 -0.00782697 5.41277C-0.00782697 4.45077 0.15684 3.61877 0.486173 2.91677C0.824173 2.2061 1.30517 1.66444 1.92917 1.29177C2.56184 0.910436 3.30717 0.719769 4.16517 0.719769C5.01451 0.719769 5.75117 0.910436 6.37517 1.29177C7.00784 1.66444 7.49317 2.2061 7.83117 2.91677C8.16917 3.61877 8.33817 4.44644 8.33817 5.39977C8.33817 6.5091 8.11284 7.44944 7.66217 8.22077C7.22017 8.98344 6.58751 9.51644 5.76417 9.81977ZM1.08417 5.39977C1.08417 6.60444 1.35284 7.5361 1.89017 8.19477C2.43617 8.85344 3.19451 9.18277 4.16517 9.18277C5.13584 9.18277 5.88984 8.85777 6.42717 8.20777C6.97317 7.5491 7.24617 6.6131 7.24617 5.39977C7.24617 4.18644 6.97751 3.25477 6.44017 2.60477C5.90284 1.95477 5.14451 1.62977 4.16517 1.62977C3.19451 1.62977 2.43617 1.9591 1.89017 2.61777C1.35284 3.26777 1.08417 4.1951 1.08417 5.39977ZM15.4319 3.65777V9.98877H14.4049V8.90977C14.2056 9.2911 13.9239 9.58144 13.5599 9.78077C13.2046 9.9801 12.8016 10.0798 12.3509 10.0798C11.5969 10.0798 11.0292 9.87177 10.6479 9.45577C10.2666 9.0311 10.0759 8.4071 10.0759 7.58377V3.65777H11.1289V7.55777C11.1289 8.1211 11.2416 8.5371 11.4669 8.80577C11.6922 9.06577 12.0476 9.19577 12.5329 9.19577C13.0876 9.19577 13.5339 9.0181 13.8719 8.66277C14.2099 8.29877 14.3789 7.8221 14.3789 7.23277V3.65777H15.4319ZM22.693 6.98577H18.065C18.0997 7.72244 18.299 8.28144 18.663 8.66277C19.027 9.03544 19.5427 9.22177 20.21 9.22177C20.9467 9.22177 21.6227 8.97044 22.238 8.46777L22.589 9.23477C22.3117 9.49477 21.9564 9.70277 21.523 9.85877C21.0897 10.0061 20.6477 10.0798 20.197 10.0798C19.209 10.0798 18.429 9.78944 17.857 9.20877C17.2937 8.6281 17.012 7.82644 17.012 6.80377C17.012 6.15377 17.1377 5.58177 17.389 5.08777C17.6404 4.5851 17.9914 4.1951 18.442 3.91777C18.9014 3.64044 19.4214 3.50177 20.002 3.50177C20.8427 3.50177 21.5014 3.7791 21.978 4.33377C22.4547 4.87977 22.693 5.63377 22.693 6.59577V6.98577ZM20.015 4.32077C19.4604 4.32077 19.014 4.4941 18.676 4.84077C18.3467 5.18744 18.1517 5.6771 18.091 6.30977H21.77C21.7527 5.66844 21.5924 5.17877 21.289 4.84077C20.9857 4.4941 20.561 4.32077 20.015 4.32077ZM26.3895 10.0798C25.3235 10.0798 24.4785 9.80677 23.8545 9.26077L24.2055 8.48077C24.5435 8.74944 24.8858 8.94444 25.2325 9.06577C25.5878 9.17844 25.9865 9.23477 26.4285 9.23477C26.8965 9.23477 27.2518 9.15677 27.4945 9.00077C27.7458 8.8361 27.8715 8.6021 27.8715 8.29877C27.8715 8.04744 27.7892 7.8481 27.6245 7.70077C27.4598 7.55344 27.1868 7.43644 26.8055 7.34977L25.7395 7.10277C25.2022 6.98144 24.7905 6.77344 24.5045 6.47877C24.2185 6.1841 24.0755 5.8201 24.0755 5.38677C24.0755 4.82344 24.2965 4.36844 24.7385 4.02177C25.1805 3.6751 25.7698 3.50177 26.5065 3.50177C26.9485 3.50177 27.3688 3.57544 27.7675 3.72277C28.1662 3.86144 28.4998 4.0651 28.7685 4.33377L28.4175 5.10077C27.8368 4.60677 27.1998 4.35977 26.5065 4.35977C26.0645 4.35977 25.7178 4.44644 25.4665 4.61977C25.2238 4.78444 25.1025 5.01844 25.1025 5.32177C25.1025 5.5731 25.1762 5.77677 25.3235 5.93277C25.4795 6.0801 25.7265 6.19277 26.0645 6.27077L27.1435 6.53077C27.7328 6.66944 28.1705 6.88177 28.4565 7.16777C28.7425 7.4451 28.8855 7.8091 28.8855 8.25977C28.8855 8.81444 28.6602 9.25644 28.2095 9.58577C27.7675 9.9151 27.1608 10.0798 26.3895 10.0798ZM33.2091 9.23477C33.3998 9.23477 33.5904 9.22177 33.7811 9.19577L33.7291 10.0278C33.5298 10.0624 33.3131 10.0798 33.0791 10.0798C32.3164 10.0798 31.7401 9.88044 31.3501 9.48177C30.9688 9.0831 30.7781 8.52844 30.7781 7.81777V4.48977H29.5431V3.65777H30.7781V1.73377H31.8311V3.65777H33.6251V4.48977H31.8311V7.73977C31.8311 8.73644 32.2904 9.23477 33.2091 9.23477ZM34.8451 3.65777H35.8981V9.98877H34.8451V3.65777ZM36.0151 0.914769V2.09777H34.7411V0.914769H36.0151ZM40.4926 10.0798C39.8946 10.0798 39.3659 9.94544 38.9066 9.67677C38.4559 9.4081 38.1049 9.02677 37.8536 8.53277C37.6109 8.0301 37.4896 7.44944 37.4896 6.79077C37.4896 6.1321 37.6109 5.55577 37.8536 5.06177C38.1049 4.5591 38.4559 4.17344 38.9066 3.90477C39.3659 3.6361 39.8946 3.50177 40.4926 3.50177C41.0906 3.50177 41.6192 3.6361 42.0786 3.90477C42.5379 4.17344 42.8889 4.5591 43.1316 5.06177C43.3829 5.55577 43.5086 6.1321 43.5086 6.79077C43.5086 7.44944 43.3829 8.0301 43.1316 8.53277C42.8889 9.02677 42.5379 9.4081 42.0786 9.67677C41.6192 9.94544 41.0906 10.0798 40.4926 10.0798ZM40.4926 9.20877C41.1166 9.20877 41.5932 9.0051 41.9226 8.59777C42.2606 8.18177 42.4296 7.57944 42.4296 6.79077C42.4296 6.01944 42.2606 5.42577 41.9226 5.00977C41.5846 4.5851 41.1079 4.37277 40.4926 4.37277C39.8772 4.37277 39.4006 4.5851 39.0626 5.00977C38.7246 5.42577 38.5556 6.01944 38.5556 6.79077C38.5556 7.57077 38.7202 8.16877 39.0496 8.58477C39.3876 9.00077 39.8686 9.20877 40.4926 9.20877ZM48.2625 3.50177C49.7792 3.50177 50.5375 4.3381 50.5375 6.01077V9.98877H49.4845V6.07577C49.4845 5.48644 49.3675 5.05744 49.1335 4.78877C48.9082 4.5201 48.5442 4.38577 48.0415 4.38577C47.4608 4.38577 46.9972 4.56344 46.6505 4.91877C46.3038 5.2741 46.1305 5.7551 46.1305 6.36177V9.98877H45.0775V3.65777H46.1175V4.69777C46.3255 4.30777 46.6158 4.0131 46.9885 3.81377C47.3612 3.60577 47.7858 3.50177 48.2625 3.50177Z" fill="white" fill-opacity="0.5"/>
</svg>
